<svg version="1.1" id="Layer_1" xmlns="http://www.w3.org/2000/svg" xmlns:xlink="http://www.w3.org/1999/xlink" x="0px" y="0px"
	 width="100%" viewBox="0 0 1247 586" enable-background="new 0 0 1247 586" xml:space="preserve">
<!-- Background -->
<path fill="transparent" opacity="1.000000" stroke="none" 
	d="
M751.000000,587.000000 
	C500.666687,587.000000 250.833359,587.000000 1.000034,587.000000 
	C1.000022,391.666687 1.000022,196.333389 1.000011,1.000060 
	C416.666626,1.000040 832.333252,1.000040 1248.000000,1.000020 
	C1248.000000,196.333267 1248.000000,391.666534 1248.000000,586.999878 
	C1082.500000,587.000000 917.000000,587.000000 751.000000,587.000000 
M235.573822,508.055847 
	C238.313446,502.070343 242.473999,496.327240 243.543610,490.056885 
	C247.882706,464.620087 247.373215,438.938812 244.483948,413.385651 
	C242.887863,399.269409 235.273239,388.987518 221.535278,383.873444 
	C220.694275,383.560364 219.967422,382.940613 218.062057,381.775269 
	C233.936707,377.460999 241.392822,367.114319 242.045670,351.579010 
	C253.428604,356.792175 263.607025,361.692139 273.998688,366.088104 
	C277.815521,367.702728 279.009094,369.750854 278.996033,373.834839 
	C278.848755,419.830505 278.904480,465.826813 278.905701,511.822968 
	C278.905762,513.793640 278.905701,515.764282 278.905701,517.760864 
	C280.184235,518.059692 280.979340,518.406921 281.774994,518.408081 
	C308.772461,518.448608 335.770142,518.413635 362.767303,518.517822 
	C366.532135,518.532349 366.593201,516.388489 366.584015,513.661133 
	C366.538055,499.995758 366.574158,486.330139 366.553345,472.664642 
	C366.551147,471.201996 366.367004,469.739655 366.235107,467.805725 
	C355.280090,467.805725 344.637024,467.652222 334.002563,467.887787 
	C330.205414,467.971924 329.142029,466.723877 329.220856,463.032928 
	C329.437866,452.871857 329.108154,442.698944 329.333557,432.538239 
	C329.599762,420.536835 334.608032,411.011444 345.100006,404.748108 
	C360.324646,395.659485 376.746216,395.597656 393.483734,398.706146 
	C394.408203,398.877869 395.685516,401.104004 395.580078,402.263092 
	C394.343384,415.861420 392.861145,429.437225 391.467468,443.021454 
	C389.054230,466.543793 386.700806,490.072479 384.209412,513.586487 
	C383.818665,517.274292 384.877594,518.600586 388.740936,518.547485 
	C402.403778,518.359558 416.070862,518.484436 429.736359,518.483643 
	C436.159729,518.483276 436.548035,518.150757 436.690247,511.834473 
	C437.282532,485.525574 437.687225,459.211151 438.495941,432.909058 
	C438.810577,422.675385 440.011017,412.468964 440.828278,401.989929 
	C444.243286,402.246552 446.885834,402.661346 449.515198,402.590210 
	C453.121246,402.492584 453.872162,404.312744 454.029053,407.515167 
	C455.756500,442.768463 457.686249,478.012054 459.317078,513.269531 
	C459.514801,517.544556 461.021454,518.608398 464.968964,518.557007 
	C478.798920,518.377136 492.632416,518.482300 506.464478,518.440308 
	C508.039429,518.435547 509.613647,518.184509 511.412018,518.028137 
	C511.327393,516.465637 511.322662,515.487183 511.214966,514.520203 
	C508.303864,488.371704 505.367920,462.226013 502.468018,436.076294 
	C500.887299,421.822357 505.511322,414.289124 518.868347,408.999298 
	C533.290405,403.287689 548.428894,405.239685 563.337097,404.873352 
	C564.721130,404.839325 566.313232,406.211823 567.520874,407.262238 
	C573.300171,412.289246 579.267395,417.150574 584.599670,422.624207 
	C588.483398,426.610870 592.764771,430.987915 594.614319,436.019592 
	C598.697693,447.128510 598.049805,458.958221 596.741028,470.605835 
	C596.506897,472.690155 595.887878,475.273926 594.474854,476.556427 
	C592.337341,478.496460 589.160645,480.845459 586.770630,480.516083 
	C584.383484,480.187103 581.617004,477.139130 580.483643,474.622528 
	C579.181213,471.730713 579.209961,468.118500 579.151855,464.810547 
	C578.994751,455.863007 579.098022,446.910919 579.098022,438.183899 
	C577.917297,437.731415 577.460449,437.404541 577.002258,437.402740 
	C563.004883,437.347076 549.007263,437.358185 535.010254,437.268829 
	C531.725098,437.247864 531.681213,439.346405 531.824036,441.622650 
	C532.625610,454.405060 532.914551,467.250824 534.438538,479.947784 
	C535.928955,492.365143 541.237244,503.250214 551.424500,511.177216 
	C569.548523,525.279968 589.867065,527.211060 610.979858,520.435181 
	C627.450317,515.149170 639.580505,504.454132 643.051331,486.639587 
	C647.593201,463.328430 647.029053,439.909790 642.570190,416.614990 
	C641.617554,411.638245 639.890625,406.809662 638.422119,401.561523 
	C658.039551,399.523224 677.320496,397.519867 697.283752,395.445618 
	C697.283752,436.636810 697.283752,477.526825 697.283752,518.932251 
	C699.733765,518.932251 701.530212,518.932190 703.326660,518.932251 
	C715.992249,518.932434 728.657898,518.938171 741.323486,518.930725 
	C747.854004,518.926880 747.858093,518.916321 747.858337,512.399353 
	C747.859985,472.236084 747.935852,432.072449 747.756836,391.909973 
	C747.736084,387.257080 749.494385,385.915009 753.714905,384.695831 
	C767.118591,380.823761 780.328064,376.278442 793.608704,371.981262 
	C804.499451,368.457367 810.050903,360.433472 813.111938,349.818115 
	C815.733459,340.726685 818.734436,331.688324 822.370850,322.961182 
	C826.279724,313.579956 833.287170,307.784058 844.017700,306.950226 
	C856.466370,305.982849 868.953979,305.007294 881.279053,303.096436 
	C894.217896,301.090332 907.051208,298.246887 919.779297,295.147766 
	C922.975891,294.369476 924.401611,294.612732 926.368225,297.054138 
	C930.311768,301.949982 935.135071,305.339966 941.783569,306.258209 
	C959.329468,308.681458 975.571716,305.105957 990.786926,296.443237 
	C993.383545,294.964844 994.831909,295.266785 997.334961,296.825012 
	C1002.769104,300.207947 1008.396423,304.059265 1014.469543,305.487854 
	C1031.073853,309.393677 1046.924438,306.515625 1061.192383,296.829651 
	C1064.030029,294.903320 1065.465576,295.818573 1067.959595,297.583649 
	C1072.608765,300.873749 1077.568481,304.412903 1082.935547,305.864746 
	C1096.250122,309.466522 1108.981323,306.012909 1121.154175,300.288544 
	C1124.892090,298.530792 1128.523315,296.546326 1131.030396,295.265106 
	C1136.369141,299.131592 1140.568237,304.177704 1145.668213,305.369965 
	C1152.380981,306.939301 1160.039429,306.577576 1166.871460,305.102173 
	C1183.305420,301.553253 1192.122192,289.127808 1196.610962,274.277405 
	C1201.798218,257.116394 1205.183105,239.407059 1209.259033,221.914505 
	C1214.167114,200.851135 1219.282593,179.828094 1223.657837,158.653198 
	C1225.076050,151.789597 1225.301636,144.404312 1224.500366,137.438507 
	C1223.768555,131.075760 1217.486572,128.855286 1211.772583,132.001892 
	C1209.932495,133.015289 1208.121582,134.495499 1206.933960,136.204605 
	C1202.901855,142.007629 1197.154053,143.971848 1190.524536,144.015289 
	C1185.701660,144.046875 1180.876709,143.638962 1176.052368,143.628632 
	C1169.836914,143.615326 1165.487061,141.162628 1162.368286,135.514206 
	C1159.276978,129.915375 1153.638062,129.111160 1148.287231,132.801056 
	C1146.240845,134.212250 1144.605347,136.256607 1142.488525,137.519348 
	C1139.278687,139.434036 1135.950684,141.878616 1132.426025,142.387085 
	C1124.876587,143.476181 1117.172729,143.554962 1109.525269,143.888092 
	C1102.522705,144.193146 1097.183105,141.824188 1093.505249,135.231522 
	C1090.687378,130.180161 1085.660278,129.424042 1080.481812,132.186935 
	C1078.445068,133.273590 1076.392334,134.569565 1074.803101,136.211716 
	C1069.705200,141.479202 1063.203369,143.430023 1056.303589,143.847427 
	C1049.005127,144.288925 1041.652588,144.137756 1034.336060,143.887009 
	C1028.310913,143.680511 1023.364685,141.629410 1019.592407,136.165222 
	C1014.913269,129.387253 1008.324341,129.072891 1001.871887,134.279083 
	C1000.705933,135.219818 999.747192,136.522659 998.449829,137.175644 
	C994.391785,139.218216 990.346863,142.217804 986.061401,142.684677 
	C977.013977,143.670303 967.810974,143.134979 958.684204,143.518463 
	C953.427246,143.739334 950.066772,141.760040 947.365784,137.164749 
	C943.066528,129.850174 935.986023,128.297501 929.705627,133.896713 
	C922.104370,140.673599 913.730652,143.765488 903.723450,143.183899 
	C899.745239,142.952698 895.746887,143.007935 891.758240,143.028610 
	C868.100281,143.151230 844.440552,143.177643 820.786194,143.543747 
	C815.800354,143.620926 813.042664,142.525528 811.375061,137.310287 
	C809.036438,129.996307 802.450317,128.338898 796.165649,132.681274 
	C794.797363,133.626663 793.450867,134.632996 792.231384,135.759567 
	C784.256409,143.127121 774.968872,148.527588 764.698547,151.523636 
	C748.755615,156.174454 732.697754,160.845993 716.368896,163.640549 
	C700.507751,166.355057 684.268433,167.193481 668.152283,168.018738 
	C626.250854,170.164337 584.325073,173.329498 542.410461,173.307770 
	C499.665161,173.285614 456.856201,170.858521 414.197144,167.788559 
	C377.856476,165.173294 341.694427,160.099289 305.441620,156.223221 
	C295.544586,155.165054 285.513458,153.249252 275.707275,153.965179 
	C262.147675,154.955154 248.674957,157.716751 235.283997,160.329315 
	C189.385300,169.284149 143.522659,178.426453 97.683556,187.681915 
	C86.764420,189.886612 75.950806,192.657043 65.163353,195.455231 
	C58.313328,197.232086 56.740887,201.298340 60.220295,207.479767 
	C61.765022,210.224075 63.556122,212.866592 65.510605,215.337631 
	C82.448761,236.752594 102.587029,254.951370 123.463860,272.351349 
	C127.158318,275.430511 128.672501,278.476898 128.663116,283.303467 
	C128.515808,359.130127 128.560257,434.957214 128.560547,510.784180 
	C128.560562,512.283997 128.116516,513.982300 128.675781,515.231506 
	C129.318954,516.668213 130.859619,518.774292 131.992950,518.763428 
	C159.139374,518.502747 186.291000,518.237610 213.423279,517.386475 
	C221.405350,517.136047 229.283875,514.984741 235.573822,508.055847 
M880.015808,431.434204 
	C880.015808,422.459229 880.015808,413.484253 880.015808,404.509247 
	C883.451050,407.879303 885.669678,411.377472 887.827759,414.912506 
	C889.775818,418.103607 891.630859,418.371918 893.658142,414.961609 
	C895.722839,411.488403 897.899536,408.081787 900.027222,404.645996 
	C901.048279,406.487885 901.177612,407.927307 901.180237,409.367004 
	C901.196777,418.362427 901.286560,427.359711 901.127319,436.352417 
	C901.071960,439.479858 901.954529,440.923401 905.296326,440.949219 
	C908.650696,440.975067 909.006104,439.225677 908.975220,436.523438 
	C908.872437,427.529114 908.933838,418.532928 908.933044,409.537445 
	C908.932434,402.427429 908.933044,395.317413 908.933044,388.332581 
	C904.135681,386.622040 901.174072,387.638977 898.974060,391.849823 
	C896.708923,396.185394 893.830627,400.200623 890.756836,405.094391 
	C887.248901,399.513733 884.581848,394.507172 881.107788,390.143036 
	C879.828369,388.535858 876.672791,388.113831 874.307556,387.909882 
	C873.759766,387.862671 872.361450,390.915070 872.343140,392.552155 
	C872.184998,406.709930 872.244446,420.870209 872.257446,435.029755 
	C872.263184,441.271851 873.484619,442.050568 880.015930,439.775208 
	C880.015930,437.388947 880.015930,434.899628 880.015808,431.434204 
M991.584167,490.500275 
	C991.585266,483.513458 991.525452,476.525848 991.616699,469.540222 
	C991.654724,466.632019 990.578796,465.371124 987.542847,465.260712 
	C984.352356,465.144623 983.438354,466.531006 983.583557,469.406464 
	C983.709167,471.895477 983.658020,474.396729 983.604248,476.890839 
	C983.317017,490.222900 986.225952,488.459930 971.089478,488.626862 
	C968.080444,488.660065 966.924683,487.470367 967.004089,484.490204 
	C967.137146,479.503204 966.948608,474.507843 967.071655,469.520355 
	C967.142883,466.632660 966.215027,465.226288 963.087646,465.282318 
	C960.084351,465.336121 958.987305,466.575256 959.001831,469.522095 
	C959.076721,484.659821 959.083313,499.798340 959.003906,514.935974 
	C958.987915,517.990173 960.269165,518.959900 963.195007,519.022156 
	C966.451721,519.091370 967.171265,517.482788 967.057129,514.708008 
	C966.947876,512.050903 967.036621,509.385712 967.035400,506.724091 
	C967.030151,495.160095 967.028625,495.281647 978.775330,495.393280 
	C982.365417,495.427399 983.847168,496.420258 983.682251,500.217621 
	C983.418091,506.302582 983.611511,512.407410 983.611511,518.364136 
	C991.154724,519.488281 991.578796,519.135986 991.582581,512.460754 
	C991.586548,505.473938 991.583618,498.487122 991.584167,490.500275 
M1067.499878,350.780884 
	C1085.321655,350.781921 1103.143433,350.744049 1120.964966,350.815765 
	C1124.666016,350.830658 1128.031616,350.238464 1128.038940,345.818085 
	C1128.045776,341.749268 1124.804565,340.793304 1121.340088,340.792114 
	C1094.024536,340.782684 1066.709106,340.792816 1039.393555,340.802826 
	C1035.881958,340.804138 1032.814087,341.767426 1032.865967,345.923645 
	C1032.917969,350.096222 1035.981812,350.839050 1039.517456,350.811340 
	C1048.511108,350.740784 1057.505615,350.783508 1067.499878,350.780884 
M1075.378296,517.058838 
	C1079.591431,514.350830 1082.125732,510.407593 1082.294312,505.512177 
	C1082.597778,496.701202 1082.767822,487.853149 1082.302246,479.057159 
	C1081.820312,469.952271 1074.936646,464.669617 1065.080811,464.974182 
	C1056.023560,465.254028 1049.866333,471.065216 1049.662476,479.899872 
	C1049.474487,488.052124 1049.466553,496.215637 1049.658691,504.367615 
	C1049.862793,513.026367 1055.908325,519.145813 1064.552124,519.213684 
	C1067.943970,519.240356 1071.345337,518.079346 1075.378296,517.058838 
M884.577881,464.927521 
	C874.101013,465.732208 868.920227,471.530243 870.180542,481.047760 
	C870.855896,486.147400 874.073120,489.341644 878.265930,491.798676 
	C882.427063,494.237152 886.703857,496.501740 890.712585,499.169128 
	C893.719299,501.169830 895.125854,504.178772 893.797668,507.854614 
	C892.462402,511.549835 889.433899,512.646667 885.832886,512.585999 
	C880.643555,512.498535 878.663391,510.373718 876.233521,502.304382 
	C874.213867,502.304382 872.139099,502.304382 870.122498,502.304382 
	C868.622314,510.428406 872.589355,516.643738 880.371765,518.752014 
	C889.496887,521.223999 898.525391,517.537720 901.026794,510.318695 
	C903.447388,503.332825 901.487732,497.321503 894.969421,493.015411 
	C890.672668,490.176880 886.024353,487.876038 881.655701,485.139343 
	C878.201111,482.975281 876.533630,479.829926 878.172852,475.765106 
	C879.893311,471.498962 883.613281,471.236084 887.411255,471.856262 
	C892.983459,472.766205 893.637695,477.579498 894.660461,481.860046 
	C896.980347,481.860046 899.035583,481.860046 901.049072,481.860046 
	C901.974731,470.952759 896.854126,465.532440 884.577881,464.927521 
M673.500061,109.227776 
	C663.183411,109.237099 652.865356,109.148079 642.550720,109.297890 
	C637.510071,109.371109 634.600159,113.118340 636.995300,116.479897 
	C638.069702,117.987755 640.819763,119.030060 642.816956,119.042107 
	C670.105286,119.206718 697.394958,119.154320 724.684265,119.152206 
	C725.515747,119.152145 726.613037,119.450157 727.128662,119.037399 
	C728.661255,117.810608 731.068237,116.305099 731.077393,114.895172 
	C731.088684,113.152954 729.342407,110.995361 727.766052,109.784706 
	C726.662659,108.937302 724.572083,109.260994 722.921936,109.257568 
	C706.781372,109.224060 690.640747,109.231781 673.500061,109.227776 
M1060.389038,415.692108 
	C1058.245117,423.795593 1056.101318,431.899109 1053.884521,440.278320 
	C1057.914551,440.961578 1061.806641,442.260193 1062.385498,437.328369 
	C1063.045654,431.704041 1066.050659,430.580933 1070.861450,431.175781 
	C1072.663330,431.398560 1074.545044,431.424408 1076.338501,431.171570 
	C1079.926392,430.665771 1081.298828,432.375031 1082.092041,435.646942 
	C1083.505127,441.475037 1084.538818,441.876129 1090.649780,439.887878 
	C1090.515137,438.813507 1090.506470,437.656372 1090.214111,436.576080 
	C1086.179077,421.671722 1082.035522,406.796265 1078.095093,391.867126 
	C1077.229858,388.588959 1075.716064,387.449341 1072.234375,387.387512 
	C1068.382080,387.319061 1067.510620,389.360535 1066.748047,392.312836 
	C1064.796387,399.869232 1062.702759,407.388885 1060.389038,415.692108 
M991.416687,411.869781 
	C990.000366,411.568115 988.590637,411.041656 987.166748,411.000397 
	C975.943909,410.674896 976.114685,410.703522 976.120605,399.325226 
	C976.122803,395.200500 977.778198,394.181274 981.492798,394.311737 
	C987.276245,394.514832 993.072083,394.365448 998.724976,394.365448 
	C999.892273,387.980316 999.586853,387.560730 994.084290,387.541626 
	C987.086121,387.517334 980.085205,387.648621 973.090759,387.486145 
	C969.848511,387.410858 968.612854,388.641174 968.629944,391.849915 
	C968.709778,406.845734 968.720520,421.842438 968.632812,436.838104 
	C968.614990,439.895111 969.841736,440.949402 972.791931,440.907135 
	C980.288391,440.799713 987.787598,440.855286 995.285522,440.886627 
	C997.731506,440.896881 1000.039185,440.346954 999.250610,437.397736 
	C998.899902,436.086182 996.802490,434.459930 995.394348,434.353973 
	C990.423462,433.979980 985.406982,434.148499 980.409302,434.218689 
	C977.589600,434.258270 976.035339,433.353943 976.167969,430.195343 
	C976.333618,426.249573 976.207764,422.291565 976.207764,417.646179 
	C980.175659,417.646179 983.632263,417.498077 987.070435,417.686157 
	C990.813599,417.890900 992.375061,416.392151 991.416687,411.869781 
M1148.214722,513.312012 
	C1148.216797,509.812714 1148.217041,506.313416 1148.221313,502.814117 
	C1148.229370,496.194397 1148.230591,496.216003 1154.628540,496.140991 
	C1156.623047,496.117615 1158.633545,496.076782 1160.606201,495.814423 
	C1168.934937,494.706482 1173.463623,488.669708 1172.990356,479.435059 
	C1172.565918,471.148987 1167.188965,465.632843 1159.073242,465.372284 
	C1154.412354,465.222626 1149.736328,465.492462 1145.079102,465.294128 
	C1141.512207,465.142212 1140.429565,466.736176 1140.449097,470.066101 
	C1140.535522,484.729248 1140.500366,499.393250 1140.471313,514.056885 
	C1140.465820,516.792053 1140.684204,518.915283 1144.365601,519.012817 
	C1148.129639,519.112610 1148.399048,517.023071 1148.214722,513.312012 
M1146.665527,394.366486 
	C1150.823486,393.775574 1152.083008,395.588531 1152.003906,399.704132 
	C1151.770996,411.832184 1151.962158,423.967926 1151.902954,436.100220 
	C1151.889526,438.844788 1151.970459,440.943085 1155.711304,440.929718 
	C1159.558105,440.915985 1159.431519,438.588348 1159.426880,435.967072 
	C1159.406494,424.499329 1159.421265,413.031494 1159.428345,401.563690 
	C1159.432739,394.380768 1159.436890,394.406799 1166.412598,394.338989 
	C1168.490967,394.318787 1170.567383,394.107849 1172.870361,393.970917 
	C1172.780762,390.931458 1174.166992,387.661346 1169.793213,387.596313 
	C1160.654419,387.460480 1151.508789,387.450134 1142.375488,387.715515 
	C1141.289185,387.747070 1139.471313,389.792175 1139.435181,390.949127 
	C1139.400635,392.051697 1141.083252,393.495331 1142.335449,394.251312 
	C1143.190552,394.767456 1144.603271,394.360046 1146.665527,394.366486 
M1152.424316,342.871246 
	C1152.904541,349.910583 1156.909912,353.920013 1162.839844,353.297516 
	C1168.075562,352.747894 1171.510864,348.251831 1170.802124,342.660309 
	C1170.259521,338.380646 1167.687012,335.754578 1163.496338,334.995972 
	C1158.356201,334.065460 1155.036377,336.347351 1152.424316,342.871246 
z"/>
<!-- BEAST and outer knife edge -->
<path fill="currentColor" opacity="1.000000" stroke="none" 
	d="
M235.336853,508.323792 
	C229.283875,514.984741 221.405350,517.136047 213.423279,517.386475 
	C186.291000,518.237610 159.139374,518.502747 131.992950,518.763428 
	C130.859619,518.774292 129.318954,516.668213 128.675781,515.231506 
	C128.116516,513.982300 128.560562,512.283997 128.560547,510.784180 
	C128.560257,434.957214 128.515808,359.130127 128.663116,283.303467 
	C128.672501,278.476898 127.158318,275.430511 123.463860,272.351349 
	C102.587029,254.951370 82.448761,236.752594 65.510605,215.337631 
	C63.556122,212.866592 61.765022,210.224075 60.220295,207.479767 
	C56.740887,201.298340 58.313328,197.232086 65.163353,195.455231 
	C75.950806,192.657043 86.764420,189.886612 97.683556,187.681915 
	C143.522659,178.426453 189.385300,169.284149 235.283997,160.329315 
	C248.674957,157.716751 262.147675,154.955154 275.707275,153.965179 
	C285.513458,153.249252 295.544586,155.165054 305.441620,156.223221 
	C341.694427,160.099289 377.856476,165.173294 414.197144,167.788559 
	C456.856201,170.858521 499.665161,173.285614 542.410461,173.307770 
	C584.325073,173.329498 626.250854,170.164337 668.152283,168.018738 
	C684.268433,167.193481 700.507751,166.355057 716.368896,163.640549 
	C732.697754,160.845993 748.755615,156.174454 764.698547,151.523636 
	C774.968872,148.527588 784.256409,143.127121 792.231384,135.759567 
	C793.450867,134.632996 794.797363,133.626663 796.165649,132.681274 
	C802.450317,128.338898 809.036438,129.996307 811.375061,137.310287 
	C813.042664,142.525528 815.800354,143.620926 820.786194,143.543747 
	C844.440552,143.177643 868.100281,143.151230 891.758240,143.028610 
	C895.746887,143.007935 899.745239,142.952698 903.723450,143.183899 
	C913.730652,143.765488 922.104370,140.673599 929.705627,133.896713 
	C935.986023,128.297501 943.066528,129.850174 947.365784,137.164749 
	C950.066772,141.760040 953.427246,143.739334 958.684204,143.518463 
	C967.810974,143.134979 977.013977,143.670303 986.061401,142.684677 
	C990.346863,142.217804 994.391785,139.218216 998.449829,137.175644 
	C999.747192,136.522659 1000.705933,135.219818 1001.871887,134.279083 
	C1008.324341,129.072891 1014.913269,129.387253 1019.592407,136.165222 
	C1023.364685,141.629410 1028.310913,143.680511 1034.336060,143.887009 
	C1041.652588,144.137756 1049.005127,144.288925 1056.303589,143.847427 
	C1063.203369,143.430023 1069.705200,141.479202 1074.803101,136.211716 
	C1076.392334,134.569565 1078.445068,133.273590 1080.481812,132.186935 
	C1085.660278,129.424042 1090.687378,130.180161 1093.505249,135.231522 
	C1097.183105,141.824188 1102.522705,144.193146 1109.525269,143.888092 
	C1117.172729,143.554962 1124.876587,143.476181 1132.426025,142.387085 
	C1135.950684,141.878616 1139.278687,139.434036 1142.488525,137.519348 
	C1144.605347,136.256607 1146.240845,134.212250 1148.287231,132.801056 
	C1153.638062,129.111160 1159.276978,129.915375 1162.368286,135.514206 
	C1165.487061,141.162628 1169.836914,143.615326 1176.052368,143.628632 
	C1180.876709,143.638962 1185.701660,144.046875 1190.524536,144.015289 
	C1197.154053,143.971848 1202.901855,142.007629 1206.933960,136.204605 
	C1208.121582,134.495499 1209.932495,133.015289 1211.772583,132.001892 
	C1217.486572,128.855286 1223.768555,131.075760 1224.500366,137.438507 
	C1225.301636,144.404312 1225.076050,151.789597 1223.657837,158.653198 
	C1219.282593,179.828094 1214.167114,200.851135 1209.259033,221.914505 
	C1205.183105,239.407059 1201.798218,257.116394 1196.610962,274.277405 
	C1192.122192,289.127808 1183.305420,301.553253 1166.871460,305.102173 
	C1160.039429,306.577576 1152.380981,306.939301 1145.668213,305.369965 
	C1140.568237,304.177704 1136.369141,299.131592 1131.030396,295.265106 
	C1128.523315,296.546326 1124.892090,298.530792 1121.154175,300.288544 
	C1108.981323,306.012909 1096.250122,309.466522 1082.935547,305.864746 
	C1077.568481,304.412903 1072.608765,300.873749 1067.959595,297.583649 
	C1065.465576,295.818573 1064.030029,294.903320 1061.192383,296.829651 
	C1046.924438,306.515625 1031.073853,309.393677 1014.469543,305.487854 
	C1008.396423,304.059265 1002.769104,300.207947 997.334961,296.825012 
	C994.831909,295.266785 993.383545,294.964844 990.786926,296.443237 
	C975.571716,305.105957 959.329468,308.681458 941.783569,306.258209 
	C935.135071,305.339966 930.311768,301.949982 926.368225,297.054138 
	C924.401611,294.612732 922.975891,294.369476 919.779297,295.147766 
	C907.051208,298.246887 894.217896,301.090332 881.279053,303.096436 
	C868.953979,305.007294 856.466370,305.982849 844.017700,306.950226 
	C833.287170,307.784058 826.279724,313.579956 822.370850,322.961182 
	C818.734436,331.688324 815.733459,340.726685 813.111938,349.818115 
	C810.050903,360.433472 804.499451,368.457367 793.608704,371.981262 
	C780.328064,376.278442 767.118591,380.823761 753.714905,384.695831 
	C749.494385,385.915009 747.736084,387.257080 747.756836,391.909973 
	C747.935852,432.072449 747.859985,472.236084 747.858337,512.399353 
	C747.858093,518.916321 747.854004,518.926880 741.323486,518.930725 
	C728.657898,518.938171 715.992249,518.932434 703.326660,518.932251 
	C701.530212,518.932190 699.733765,518.932251 697.283752,518.932251 
	C697.283752,477.526825 697.283752,436.636810 697.283752,395.445618 
	C677.320496,397.519867 658.039551,399.523224 638.422119,401.561523 
	C639.890625,406.809662 641.617554,411.638245 642.570190,416.614990 
	C647.029053,439.909790 647.593201,463.328430 643.051331,486.639587 
	C639.580505,504.454132 627.450317,515.149170 610.979858,520.435181 
	C589.867065,527.211060 569.548523,525.279968 551.424500,511.177216 
	C541.237244,503.250214 535.928955,492.365143 534.438538,479.947784 
	C532.914551,467.250824 532.625610,454.405060 531.824036,441.622650 
	C531.681213,439.346405 531.725098,437.247864 535.010254,437.268829 
	C549.007263,437.358185 563.004883,437.347076 577.002258,437.402740 
	C577.460449,437.404541 577.917297,437.731415 579.098022,438.183899 
	C579.098022,446.910919 578.994751,455.863007 579.151855,464.810547 
	C579.209961,468.118500 579.181213,471.730713 580.483643,474.622528 
	C581.617004,477.139130 584.383484,480.187103 586.770630,480.516083 
	C589.160645,480.845459 592.337341,478.496460 594.474854,476.556427 
	C595.887878,475.273926 596.506897,472.690155 596.741028,470.605835 
	C598.049805,458.958221 598.697693,447.128510 594.614319,436.019592 
	C592.764771,430.987915 588.483398,426.610870 584.599670,422.624207 
	C579.267395,417.150574 573.300171,412.289246 567.520874,407.262238 
	C566.313232,406.211823 564.721130,404.839325 563.337097,404.873352 
	C548.428894,405.239685 533.290405,403.287689 518.868347,408.999298 
	C505.511322,414.289124 500.887299,421.822357 502.468018,436.076294 
	C505.367920,462.226013 508.303864,488.371704 511.214966,514.520203 
	C511.322662,515.487183 511.327393,516.465637 511.412018,518.028137 
	C509.613647,518.184509 508.039429,518.435547 506.464478,518.440308 
	C492.632416,518.482300 478.798920,518.377136 464.968964,518.557007 
	C461.021454,518.608398 459.514801,517.544556 459.317078,513.269531 
	C457.686249,478.012054 455.756500,442.768463 454.029053,407.515167 
	C453.872162,404.312744 453.121246,402.492584 449.515198,402.590210 
	C446.885834,402.661346 444.243286,402.246552 440.828278,401.989929 
	C440.011017,412.468964 438.810577,422.675385 438.495941,432.909058 
	C437.687225,459.211151 437.282532,485.525574 436.690247,511.834473 
	C436.548035,518.150757 436.159729,518.483276 429.736359,518.483643 
	C416.070862,518.484436 402.403778,518.359558 388.740936,518.547485 
	C384.877594,518.600586 383.818665,517.274292 384.209412,513.586487 
	C386.700806,490.072479 389.054230,466.543793 391.467468,443.021454 
	C392.861145,429.437225 394.343384,415.861420 395.580078,402.263092 
	C395.685516,401.104004 394.408203,398.877869 393.483734,398.706146 
	C376.746216,395.597656 360.324646,395.659485 345.100006,404.748108 
	C334.608032,411.011444 329.599762,420.536835 329.333557,432.538239 
	C329.108154,442.698944 329.437866,452.871857 329.220856,463.032928 
	C329.142029,466.723877 330.205414,467.971924 334.002563,467.887787 
	C344.637024,467.652222 355.280090,467.805725 366.235107,467.805725 
	C366.367004,469.739655 366.551147,471.201996 366.553345,472.664642 
	C366.574158,486.330139 366.538055,499.995758 366.584015,513.661133 
	C366.593201,516.388489 366.532135,518.532349 362.767303,518.517822 
	C335.770142,518.413635 308.772461,518.448608 281.774994,518.408081 
	C280.979340,518.406921 280.184235,518.059692 278.905701,517.760864 
	C278.905701,515.764282 278.905762,513.793640 278.905701,511.822968 
	C278.904480,465.826813 278.848755,419.830505 278.996033,373.834839 
	C279.009094,369.750854 277.815521,367.702728 273.998688,366.088104 
	C263.607025,361.692139 253.428604,356.792175 242.045670,351.579010 
	C241.392822,367.114319 233.936707,377.460999 218.062057,381.775269 
	C219.967422,382.940613 220.694275,383.560364 221.535278,383.873444 
	C235.273239,388.987518 242.887863,399.269409 244.483948,413.385651 
	C247.373215,438.938812 247.882706,464.620087 243.543610,490.056885 
	C242.473999,496.327240 238.313446,502.070343 235.336853,508.323792 
M1151.637817,142.854965 
	C1146.397827,148.345901 1140.253662,151.997894 1132.463135,152.357635 
	C1125.983398,152.656860 1119.495117,152.857452 1113.029419,153.349976 
	C1101.773804,154.207397 1091.713989,152.502045 1085.563843,141.557846 
	C1085.505371,141.453735 1085.267456,141.450424 1084.558472,141.218796 
	C1082.895996,142.528305 1081.115601,144.285538 1079.021606,145.504105 
	C1075.038696,147.821976 1071.095459,150.638229 1066.747681,151.818039 
	C1053.856812,155.316223 1040.691528,154.710907 1027.577271,152.881042 
	C1021.677002,152.057739 1016.757263,149.312988 1013.548828,144.265228 
	C1010.920898,140.130783 1008.731689,140.757553 1005.873108,143.921265 
	C1001.467712,148.796982 995.909912,151.994965 989.337646,152.325195 
	C978.051758,152.892303 966.739380,152.961060 955.436523,153.147095 
	C948.892395,153.254822 943.782166,150.504105 940.597839,144.742096 
	C938.621155,141.165466 936.729797,140.225494 933.448120,143.431091 
	C925.812622,150.889496 916.221924,153.074432 905.908325,153.097565 
	C878.411255,153.159256 850.908875,152.959229 823.419922,153.471085 
	C813.638611,153.653214 805.429993,152.725906 802.111816,141.862122 
	C802.076965,141.748077 801.833374,141.697769 801.802917,141.681091 
	C795.139343,146.103363 788.835266,151.069061 781.859009,154.766586 
	C762.802917,164.866653 741.943115,169.594376 720.890320,172.930206 
	C705.961731,175.295639 690.795044,176.458939 675.686890,177.332504 
	C636.620972,179.591324 597.547241,182.279480 558.441040,183.096481 
	C527.006348,183.753189 495.501312,182.374680 464.060150,181.096405 
	C409.277893,178.869186 354.801758,173.130539 300.510498,165.532578 
	C292.495056,164.410812 284.210205,162.943634 276.297729,163.835022 
	C260.448578,165.620499 244.699127,168.565536 229.035461,171.671967 
	C178.272385,181.739380 127.564606,192.085968 76.845711,202.375168 
	C74.543228,202.842255 72.339897,203.798050 69.602257,204.684219 
	C71.612640,207.378204 72.872520,209.596375 74.618263,211.323441 
	C91.057274,227.586594 107.694572,243.651077 124.009727,260.036652 
	C129.172241,265.221497 134.960800,266.332672 141.965714,266.352570 
	C161.770950,266.408752 181.605652,266.641724 201.369400,267.809448 
	C221.312805,268.987762 233.640091,280.799438 238.223480,299.601288 
	C240.992981,310.962219 241.495941,322.930084 242.350449,334.673767 
	C242.647980,338.762573 243.882706,340.905121 247.436996,342.686554 
	C284.653839,361.339630 323.220398,376.194305 364.195160,384.209686 
	C374.918365,386.307312 385.782074,387.686951 396.946930,389.454224 
	C397.298584,386.959839 397.580231,385.362274 397.742371,383.752655 
	C401.514648,346.306641 405.344330,308.866058 408.933197,271.402405 
	C409.316254,267.403687 410.418549,266.082794 414.535248,266.121429 
	C435.532440,266.318481 456.532471,266.203949 477.531525,266.219604 
	C479.159729,266.220825 480.787842,266.385101 482.735382,266.490967 
	C484.434265,281.520447 486.108582,296.219910 487.754791,310.922546 
	C490.034088,331.279175 492.251678,351.642822 494.598969,371.991577 
	C494.994476,375.420166 493.948578,376.651306 490.394287,376.946014 
	C484.945435,377.397888 479.561401,378.610016 474.142914,379.454895 
	C466.688202,380.617249 459.227020,381.738007 451.041443,382.987610 
	C450.164185,365.131927 449.354950,348.660858 448.545715,332.189789 
	C446.796844,338.648743 446.142151,345.157532 445.523071,351.669708 
	C444.372681,363.771515 443.321503,375.883545 442.055725,387.973175 
	C441.687286,391.492035 442.846832,392.770996 446.375549,392.720459 
	C450.865601,392.656189 455.360321,393.112457 459.855988,393.214508 
	C489.159607,393.879639 518.463867,394.519836 547.768921,395.118469 
	C549.130066,395.146301 550.500854,394.699738 551.973999,394.456421 
	C551.664978,393.533905 551.642029,393.158417 551.445984,392.934601 
	C550.678406,392.058167 549.888977,391.195557 549.049194,390.388702 
	C541.505127,383.140564 536.784668,374.248718 534.142395,364.246002 
	C528.590088,343.226837 529.263306,322.025635 532.791016,300.814880 
	C535.823730,282.580231 546.306946,270.145721 563.640076,264.227966 
	C578.554260,259.136078 593.900635,259.472656 608.821167,264.589905 
	C626.073059,270.506714 637.477234,281.850677 639.693115,300.735474 
	C640.585083,308.337067 641.322388,315.970673 641.728455,323.611053 
	C642.060486,329.856293 641.796143,336.133179 641.796143,342.599670 
	C625.728088,342.599670 610.451904,342.599670 594.428040,342.599670 
	C594.428040,335.843384 594.590393,329.222595 594.372620,322.614319 
	C594.219849,317.976379 594.056641,313.233307 592.978943,308.758514 
	C591.678894,303.360413 585.172363,302.244843 581.666016,306.590454 
	C580.453918,308.092743 579.422424,310.030457 579.089783,311.907745 
	C575.913208,329.834534 577.905823,345.458588 594.360962,357.545776 
	C607.019348,366.844025 617.828735,378.642883 629.653137,389.111938 
	C631.254517,390.529694 634.042664,391.455566 636.176758,391.286774 
	C651.116455,390.105072 666.035156,388.638977 680.946350,387.123840 
	C686.326477,386.577148 691.667603,385.645569 696.868164,384.911926 
	C696.868164,361.901581 696.868164,339.639008 696.868164,316.781311 
	C688.267090,316.781311 679.981384,316.719818 671.697571,316.814392 
	C668.766785,316.847839 667.072754,316.317596 667.114014,312.735413 
	C667.277344,298.571289 667.247681,284.403534 667.125977,270.238556 
	C667.099487,267.150726 668.271118,266.162872 671.220032,266.167755 
	C705.385010,266.224335 739.550232,266.236694 773.715149,266.167694 
	C776.787292,266.161499 777.763794,267.299561 777.743347,270.279266 
	C777.646362,284.444611 777.642273,298.611511 777.757263,312.776611 
	C777.782043,315.828217 776.698792,316.895233 773.682007,316.829620 
	C766.852234,316.681030 760.007812,316.994843 753.187317,316.702148 
	C749.005432,316.522675 747.729797,318.004425 747.776672,322.117615 
	C747.960876,338.281433 747.836853,354.448639 747.869019,370.614502 
	C747.872131,372.181976 748.163330,373.748840 748.465210,376.752869 
	C762.180420,372.225586 775.039612,367.909271 787.947632,363.744598 
	C796.853760,360.871124 801.462280,354.760834 804.063660,345.830322 
	C807.165039,335.183350 810.951416,324.600891 815.756287,314.623932 
	C820.368530,305.046967 828.547363,299.000610 839.616943,297.806641 
	C855.009949,296.146362 870.485229,295.008331 885.765320,292.622162 
	C896.847229,290.891663 907.902710,288.190125 918.525391,284.604492 
	C925.568542,282.227112 927.535339,281.641510 931.811401,287.999023 
	C935.837524,293.984894 941.066956,296.924072 948.494568,297.085907 
	C963.838074,297.420197 977.794922,293.660980 990.445618,284.954956 
	C995.572876,281.426422 997.077454,282.366058 1001.389465,286.508148 
	C1005.323792,290.287506 1010.194580,294.070496 1015.302795,295.457367 
	C1028.269165,298.977814 1041.083984,297.430603 1052.854370,290.355133 
	C1055.989502,288.470551 1058.937744,286.277283 1062.045166,284.343872 
	C1065.529785,282.175934 1068.843018,282.327881 1071.114990,286.040497 
	C1076.910278,295.510132 1085.643921,297.815216 1096.029419,297.130127 
	C1108.461304,296.309998 1118.984253,290.757507 1129.302490,284.558044 
	C1135.670410,280.732025 1138.187622,281.485291 1140.983765,288.246155 
	C1142.706299,292.411224 1145.079834,295.969971 1150.068115,296.531097 
	C1163.857910,298.082397 1175.225708,294.075745 1182.298218,281.510315 
	C1185.045654,276.629242 1187.627686,271.396057 1188.919067,265.996582 
	C1197.394653,230.558533 1205.563477,195.046356 1213.647827,159.516357 
	C1214.846680,154.247498 1215.071167,148.756943 1215.746582,143.368973 
	C1215.243652,143.183762 1214.740601,142.998566 1214.237671,142.813354 
	C1209.216797,150.054504 1202.161011,153.319031 1193.715942,153.465683 
	C1186.905762,153.583939 1180.088623,153.328064 1173.275024,153.209930 
	C1165.947754,153.082901 1160.093140,150.302841 1155.987549,143.981567 
	C1155.375610,143.039459 1153.513306,142.909439 1151.637817,142.854965 
M179.171783,447.499908 
	C179.171783,456.452972 179.171783,465.406006 179.171783,474.250488 
	C189.080093,475.861603 194.566452,472.039337 194.839600,462.731293 
	C195.274353,447.916840 195.209564,433.078644 194.972000,418.256592 
	C194.801453,407.614899 190.462555,404.277435 179.171783,405.691040 
	C179.171783,419.245667 179.171783,432.872772 179.171783,447.499908 
M179.171783,328.500916 
	C179.171783,340.578400 179.171783,352.655884 179.171783,364.634918 
	C190.625076,366.306976 194.474182,363.464081 194.839203,352.789001 
	C195.179474,342.838196 195.249954,332.856934 194.887070,322.909241 
	C194.507935,312.515503 190.193405,309.157623 179.171783,310.272308 
	C179.171783,315.962006 179.171783,321.731873 179.171783,328.500916 
z"/>
<!-- M -->
<path fill="currentColor" opacity="1.000000" stroke="none" 
	d="
M880.015869,431.922241 
	C880.015930,434.899628 880.015930,437.388947 880.015930,439.775208 
	C873.484619,442.050568 872.263184,441.271851 872.257446,435.029755 
	C872.244446,420.870209 872.184998,406.709930 872.343140,392.552155 
	C872.361450,390.915070 873.759766,387.862671 874.307556,387.909882 
	C876.672791,388.113831 879.828369,388.535858 881.107788,390.143036 
	C884.581848,394.507172 887.248901,399.513733 890.756836,405.094391 
	C893.830627,400.200623 896.708923,396.185394 898.974060,391.849823 
	C901.174072,387.638977 904.135681,386.622040 908.933044,388.332581 
	C908.933044,395.317413 908.932434,402.427429 908.933044,409.537445 
	C908.933838,418.532928 908.872437,427.529114 908.975220,436.523438 
	C909.006104,439.225677 908.650696,440.975067 905.296326,440.949219 
	C901.954529,440.923401 901.071960,439.479858 901.127319,436.352417 
	C901.286560,427.359711 901.196777,418.362427 901.180237,409.367004 
	C901.177612,407.927307 901.048279,406.487885 900.027222,404.645996 
	C897.899536,408.081787 895.722839,411.488403 893.658142,414.961609 
	C891.630859,418.371918 889.775818,418.103607 887.827759,414.912506 
	C885.669678,411.377472 883.451050,407.879303 880.015808,404.509247 
	C880.015808,413.484253 880.015808,422.459229 880.015869,431.922241 
z"/>
<!-- H -->
<path fill="currentColor" opacity="1.000000" stroke="none" 
	d="
M991.583923,491.000305 
	C991.583618,498.487122 991.586548,505.473938 991.582581,512.460754 
	C991.578796,519.135986 991.154724,519.488281 983.611511,518.364136 
	C983.611511,512.407410 983.418091,506.302582 983.682251,500.217621 
	C983.847168,496.420258 982.365417,495.427399 978.775330,495.393280 
	C967.028625,495.281647 967.030151,495.160095 967.035400,506.724091 
	C967.036621,509.385712 966.947876,512.050903 967.057129,514.708008 
	C967.171265,517.482788 966.451721,519.091370 963.195007,519.022156 
	C960.269165,518.959900 958.987915,517.990173 959.003906,514.935974 
	C959.083313,499.798340 959.076721,484.659821 959.001831,469.522095 
	C958.987305,466.575256 960.084351,465.336121 963.087646,465.282318 
	C966.215027,465.226288 967.142883,466.632660 967.071655,469.520355 
	C966.948608,474.507843 967.137146,479.503204 967.004089,484.490204 
	C966.924683,487.470367 968.080444,488.660065 971.089478,488.626862 
	C986.225952,488.459930 983.317017,490.222900 983.604248,476.890839 
	C983.658020,474.396729 983.709167,471.895477 983.583557,469.406464 
	C983.438354,466.531006 984.352356,465.144623 987.542847,465.260712 
	C990.578796,465.371124 991.654724,466.632019 991.616699,469.540222 
	C991.525452,476.525848 991.585266,483.513458 991.583923,491.000305 
z"/>
<path fill="currentColor" opacity="1.000000" stroke="none" 
	d="
M1066.999756,350.780884 
	C1057.505615,350.783508 1048.511108,350.740784 1039.517456,350.811340 
	C1035.981812,350.839050 1032.917969,350.096222 1032.865967,345.923645 
	C1032.814087,341.767426 1035.881958,340.804138 1039.393555,340.802826 
	C1066.709106,340.792816 1094.024536,340.782684 1121.340088,340.792114 
	C1124.804565,340.793304 1128.045776,341.749268 1128.038940,345.818085 
	C1128.031616,350.238464 1124.666016,350.830658 1120.964966,350.815765 
	C1103.143433,350.744049 1085.321655,350.781921 1066.999756,350.780884 
z"/>
<!-- O -->
<path fill="currentColor" opacity="1.000000" stroke="none" 
	d="
M1075.060303,517.259033 
	C1071.345337,518.079346 1067.943970,519.240356 1064.552124,519.213684 
	C1055.908325,519.145813 1049.862793,513.026367 1049.658691,504.367615 
	C1049.466553,496.215637 1049.474487,488.052124 1049.662476,479.899872 
	C1049.866333,471.065216 1056.023560,465.254028 1065.080811,464.974182 
	C1074.936646,464.669617 1081.820312,469.952271 1082.302246,479.057159 
	C1082.767822,487.853149 1082.597778,496.701202 1082.294312,505.512177 
	C1082.125732,510.407593 1079.591431,514.350830 1075.060303,517.259033 
M1072.314453,474.124847 
	C1069.118896,471.238434 1065.066406,470.248932 1061.876587,472.822632 
	C1059.533813,474.712799 1057.689087,478.403473 1057.423706,481.448761 
	C1056.791138,488.706970 1057.119263,496.060181 1057.262451,503.371063 
	C1057.377075,509.228180 1060.831421,512.704407 1066.090210,512.651733 
	C1071.338867,512.599060 1074.676392,509.133240 1074.788940,503.221710 
	C1074.928101,495.910675 1074.982300,488.590179 1074.744385,481.284485 
	C1074.672729,479.082458 1073.506470,476.916077 1072.314453,474.124847 
z"/>
<!-- S -->
<path fill="currentColor" opacity="1.000000" stroke="none" 
	d="
M885.025269,464.924469 
	C896.854126,465.532440 901.974731,470.952759 901.049072,481.860046 
	C899.035583,481.860046 896.980347,481.860046 894.660461,481.860046 
	C893.637695,477.579498 892.983459,472.766205 887.411255,471.856262 
	C883.613281,471.236084 879.893311,471.498962 878.172852,475.765106 
	C876.533630,479.829926 878.201111,482.975281 881.655701,485.139343 
	C886.024353,487.876038 890.672668,490.176880 894.969421,493.015411 
	C901.487732,497.321503 903.447388,503.332825 901.026794,510.318695 
	C898.525391,517.537720 889.496887,521.223999 880.371765,518.752014 
	C872.589355,516.643738 868.622314,510.428406 870.122498,502.304382 
	C872.139099,502.304382 874.213867,502.304382 876.233521,502.304382 
	C878.663391,510.373718 880.643555,512.498535 885.832886,512.585999 
	C889.433899,512.646667 892.462402,511.549835 893.797668,507.854614 
	C895.125854,504.178772 893.719299,501.169830 890.712585,499.169128 
	C886.703857,496.501740 882.427063,494.237152 878.265930,491.798676 
	C874.073120,489.341644 870.855896,486.147400 870.180542,481.047760 
	C868.920227,471.530243 874.101013,465.732208 885.025269,464.924469 
z"/>
<!-- line above knife -->
<path fill="currentColor" opacity="1.000000" stroke="none" 
	d="
M674.000122,109.227776 
	C690.640747,109.231781 706.781372,109.224060 722.921936,109.257568 
	C724.572083,109.260994 726.662659,108.937302 727.766052,109.784706 
	C729.342407,110.995361 731.088684,113.152954 731.077393,114.895172 
	C731.068237,116.305099 728.661255,117.810608 727.128662,119.037399 
	C726.613037,119.450157 725.515747,119.152145 724.684265,119.152206 
	C697.394958,119.154320 670.105286,119.206718 642.816956,119.042107 
	C640.819763,119.030060 638.069702,117.987755 636.995300,116.479897 
	C634.600159,113.118340 637.510071,109.371109 642.550720,109.297890 
	C652.865356,109.148079 663.183411,109.237099 674.000122,109.227776 
z"/>
<!-- A -->
<path fill="currentColor" opacity="1.000000" stroke="none" 
	d="
M1060.527466,415.307678 
	C1062.702759,407.388885 1064.796387,399.869232 1066.748047,392.312836 
	C1067.510620,389.360535 1068.382080,387.319061 1072.234375,387.387512 
	C1075.716064,387.449341 1077.229858,388.588959 1078.095093,391.867126 
	C1082.035522,406.796265 1086.179077,421.671722 1090.214111,436.576080 
	C1090.506470,437.656372 1090.515137,438.813507 1090.649780,439.887878 
	C1084.538818,441.876129 1083.505127,441.475037 1082.092041,435.646942 
	C1081.298828,432.375031 1079.926392,430.665771 1076.338501,431.171570 
	C1074.545044,431.424408 1072.663330,431.398560 1070.861450,431.175781 
	C1066.050659,430.580933 1063.045654,431.704041 1062.385498,437.328369 
	C1061.806641,442.260193 1057.914551,440.961578 1053.884521,440.278320 
	C1056.101318,431.899109 1058.245117,423.795593 1060.527466,415.307678 
M1073.368286,425.076874 
	C1075.559570,424.597748 1079.604980,426.473755 1078.455811,421.558014 
	C1076.764893,414.324005 1074.750732,407.165558 1072.874268,399.974915 
	C1072.528198,399.957245 1072.182007,399.939606 1071.835938,399.921936 
	C1069.835083,408.007812 1067.834229,416.093689 1065.611450,425.076721 
	C1068.576172,425.076721 1070.526733,425.076721 1073.368286,425.076874 
z"/>
<!-- E -->
<path fill="currentColor" opacity="1.000000" stroke="none" 
	d="
M991.560547,412.270874 
	C992.375061,416.392151 990.813599,417.890900 987.070435,417.686157 
	C983.632263,417.498077 980.175659,417.646179 976.207764,417.646179 
	C976.207764,422.291565 976.333618,426.249573 976.167969,430.195343 
	C976.035339,433.353943 977.589600,434.258270 980.409302,434.218689 
	C985.406982,434.148499 990.423462,433.979980 995.394348,434.353973 
	C996.802490,434.459930 998.899902,436.086182 999.250610,437.397736 
	C1000.039185,440.346954 997.731506,440.896881 995.285522,440.886627 
	C987.787598,440.855286 980.288391,440.799713 972.791931,440.907135 
	C969.841736,440.949402 968.614990,439.895111 968.632812,436.838104 
	C968.720520,421.842438 968.709778,406.845734 968.629944,391.849915 
	C968.612854,388.641174 969.848511,387.410858 973.090759,387.486145 
	C980.085205,387.648621 987.086121,387.517334 994.084290,387.541626 
	C999.586853,387.560730 999.892273,387.980316 998.724976,394.365448 
	C993.072083,394.365448 987.276245,394.514832 981.492798,394.311737 
	C977.778198,394.181274 976.122803,395.200500 976.120605,399.325226 
	C976.114685,410.703522 975.943909,410.674896 987.166748,411.000397 
	C988.590637,411.041656 990.000366,411.568115 991.560547,412.270874 
z"/>
<!-- P -->
<path fill="currentColor" opacity="1.000000" stroke="none" 
	d="
M1148.213135,513.784668 
	C1148.399048,517.023071 1148.129639,519.112610 1144.365601,519.012817 
	C1140.684204,518.915283 1140.465820,516.792053 1140.471313,514.056885 
	C1140.500366,499.393250 1140.535522,484.729248 1140.449097,470.066101 
	C1140.429565,466.736176 1141.512207,465.142212 1145.079102,465.294128 
	C1149.736328,465.492462 1154.412354,465.222626 1159.073242,465.372284 
	C1167.188965,465.632843 1172.565918,471.148987 1172.990356,479.435059 
	C1173.463623,488.669708 1168.934937,494.706482 1160.606201,495.814423 
	C1158.633545,496.076782 1156.623047,496.117615 1154.628540,496.140991 
	C1148.230591,496.216003 1148.229370,496.194397 1148.221313,502.814117 
	C1148.217041,506.313416 1148.216797,509.812714 1148.213135,513.784668 
M1150.836426,472.023499 
	C1149.985718,472.629822 1148.421265,473.208923 1148.396973,473.846741 
	C1148.197388,479.079773 1148.284424,484.323792 1148.284424,489.927460 
	C1151.685059,489.927460 1154.328979,490.053192 1156.956665,489.901306 
	C1162.445923,489.584137 1165.284058,486.402527 1165.260620,480.807800 
	C1165.236938,475.197388 1162.424438,472.284729 1156.721558,472.028717 
	C1155.064087,471.954315 1153.400879,472.004547 1150.836426,472.023499 
z"/>
<!-- T -->
<path fill="currentColor" opacity="1.000000" stroke="none" 
	d="
M1146.216064,394.366028 
	C1144.603271,394.360046 1143.190552,394.767456 1142.335449,394.251312 
	C1141.083252,393.495331 1139.400635,392.051697 1139.435181,390.949127 
	C1139.471313,389.792175 1141.289185,387.747070 1142.375488,387.715515 
	C1151.508789,387.450134 1160.654419,387.460480 1169.793213,387.596313 
	C1174.166992,387.661346 1172.780762,390.931458 1172.870361,393.970917 
	C1170.567383,394.107849 1168.490967,394.318787 1166.412598,394.338989 
	C1159.436890,394.406799 1159.432739,394.380768 1159.428345,401.563690 
	C1159.421265,413.031494 1159.406494,424.499329 1159.426880,435.967072 
	C1159.431519,438.588348 1159.558105,440.915985 1155.711304,440.929718 
	C1151.970459,440.943085 1151.889526,438.844788 1151.902954,436.100220 
	C1151.962158,423.967926 1151.770996,411.832184 1152.003906,399.704132 
	C1152.083008,395.588531 1150.823486,393.775574 1146.216064,394.366028 
z"/>
<!-- dot stroke -->
<path fill="currentColor" opacity="1.000000" stroke="none" 
	d="
M1152.510864,342.503021 
	C1155.036377,336.347351 1158.356201,334.065460 1163.496338,334.995972 
	C1167.687012,335.754578 1170.259521,338.380646 1170.802124,342.660309 
	C1171.510864,348.251831 1168.075562,352.747894 1162.839844,353.297516 
	C1156.909912,353.920013 1152.904541,349.910583 1152.510864,342.503021 
z"/>
<!-- Inside the knife -->
<path fill="transparent" opacity="1.000000" stroke="none" 
	d="
M1151.933594,142.629364 
	C1153.513306,142.909439 1155.375610,143.039459 1155.987549,143.981567 
	C1160.093140,150.302841 1165.947754,153.082901 1173.275024,153.209930 
	C1180.088623,153.328064 1186.905762,153.583939 1193.715942,153.465683 
	C1202.161011,153.319031 1209.216797,150.054504 1214.237671,142.813354 
	C1214.740601,142.998566 1215.243652,143.183762 1215.746582,143.368973 
	C1215.071167,148.756943 1214.846680,154.247498 1213.647827,159.516357 
	C1205.563477,195.046356 1197.394653,230.558533 1188.919067,265.996582 
	C1187.627686,271.396057 1185.045654,276.629242 1182.298218,281.510315 
	C1175.225708,294.075745 1163.857910,298.082397 1150.068115,296.531097 
	C1145.079834,295.969971 1142.706299,292.411224 1140.983765,288.246155 
	C1138.187622,281.485291 1135.670410,280.732025 1129.302490,284.558044 
	C1118.984253,290.757507 1108.461304,296.309998 1096.029419,297.130127 
	C1085.643921,297.815216 1076.910278,295.510132 1071.114990,286.040497 
	C1068.843018,282.327881 1065.529785,282.175934 1062.045166,284.343872 
	C1058.937744,286.277283 1055.989502,288.470551 1052.854370,290.355133 
	C1041.083984,297.430603 1028.269165,298.977814 1015.302795,295.457367 
	C1010.194580,294.070496 1005.323792,290.287506 1001.389465,286.508148 
	C997.077454,282.366058 995.572876,281.426422 990.445618,284.954956 
	C977.794922,293.660980 963.838074,297.420197 948.494568,297.085907 
	C941.066956,296.924072 935.837524,293.984894 931.811401,287.999023 
	C927.535339,281.641510 925.568542,282.227112 918.525391,284.604492 
	C907.902710,288.190125 896.847229,290.891663 885.765320,292.622162 
	C870.485229,295.008331 855.009949,296.146362 839.616943,297.806641 
	C828.547363,299.000610 820.368530,305.046967 815.756287,314.623932 
	C810.951416,324.600891 807.165039,335.183350 804.063660,345.830322 
	C801.462280,354.760834 796.853760,360.871124 787.947632,363.744598 
	C775.039612,367.909271 762.180420,372.225586 748.465210,376.752869 
	C748.163330,373.748840 747.872131,372.181976 747.869019,370.614502 
	C747.836853,354.448639 747.960876,338.281433 747.776672,322.117615 
	C747.729797,318.004425 749.005432,316.522675 753.187317,316.702148 
	C760.007812,316.994843 766.852234,316.681030 773.682007,316.829620 
	C776.698792,316.895233 777.782043,315.828217 777.757263,312.776611 
	C777.642273,298.611511 777.646362,284.444611 777.743347,270.279266 
	C777.763794,267.299561 776.787292,266.161499 773.715149,266.167694 
	C739.550232,266.236694 705.385010,266.224335 671.220032,266.167755 
	C668.271118,266.162872 667.099487,267.150726 667.125977,270.238556 
	C667.247681,284.403534 667.277344,298.571289 667.114014,312.735413 
	C667.072754,316.317596 668.766785,316.847839 671.697571,316.814392 
	C679.981384,316.719818 688.267090,316.781311 696.868164,316.781311 
	C696.868164,339.639008 696.868164,361.901581 696.868164,384.911926 
	C691.667603,385.645569 686.326477,386.577148 680.946350,387.123840 
	C666.035156,388.638977 651.116455,390.105072 636.176758,391.286774 
	C634.042664,391.455566 631.254517,390.529694 629.653137,389.111938 
	C617.828735,378.642883 607.019348,366.844025 594.360962,357.545776 
	C577.905823,345.458588 575.913208,329.834534 579.089783,311.907745 
	C579.422424,310.030457 580.453918,308.092743 581.666016,306.590454 
	C585.172363,302.244843 591.678894,303.360413 592.978943,308.758514 
	C594.056641,313.233307 594.219849,317.976379 594.372620,322.614319 
	C594.590393,329.222595 594.428040,335.843384 594.428040,342.599670 
	C610.451904,342.599670 625.728088,342.599670 641.796143,342.599670 
	C641.796143,336.133179 642.060486,329.856293 641.728455,323.611053 
	C641.322388,315.970673 640.585083,308.337067 639.693115,300.735474 
	C637.477234,281.850677 626.073059,270.506714 608.821167,264.589905 
	C593.900635,259.472656 578.554260,259.136078 563.640076,264.227966 
	C546.306946,270.145721 535.823730,282.580231 532.791016,300.814880 
	C529.263306,322.025635 528.590088,343.226837 534.142395,364.246002 
	C536.784668,374.248718 541.505127,383.140564 549.049194,390.388702 
	C549.888977,391.195557 550.678406,392.058167 551.445984,392.934601 
	C551.642029,393.158417 551.664978,393.533905 551.973999,394.456421 
	C550.500854,394.699738 549.130066,395.146301 547.768921,395.118469 
	C518.463867,394.519836 489.159607,393.879639 459.855988,393.214508 
	C455.360321,393.112457 450.865601,392.656189 446.375549,392.720459 
	C442.846832,392.770996 441.687286,391.492035 442.055725,387.973175 
	C443.321503,375.883545 444.372681,363.771515 445.523071,351.669708 
	C446.142151,345.157532 446.796844,338.648743 448.545715,332.189789 
	C449.354950,348.660858 450.164185,365.131927 451.041443,382.987610 
	C459.227020,381.738007 466.688202,380.617249 474.142914,379.454895 
	C479.561401,378.610016 484.945435,377.397888 490.394287,376.946014 
	C493.948578,376.651306 494.994476,375.420166 494.598969,371.991577 
	C492.251678,351.642822 490.034088,331.279175 487.754791,310.922546 
	C486.108582,296.219910 484.434265,281.520447 482.735382,266.490967 
	C480.787842,266.385101 479.159729,266.220825 477.531525,266.219604 
	C456.532471,266.203949 435.532440,266.318481 414.535248,266.121429 
	C410.418549,266.082794 409.316254,267.403687 408.933197,271.402405 
	C405.344330,308.866058 401.514648,346.306641 397.742371,383.752655 
	C397.580231,385.362274 397.298584,386.959839 396.946930,389.454224 
	C385.782074,387.686951 374.918365,386.307312 364.195160,384.209686 
	C323.220398,376.194305 284.653839,361.339630 247.436996,342.686554 
	C243.882706,340.905121 242.647980,338.762573 242.350449,334.673767 
	C241.495941,322.930084 240.992981,310.962219 238.223480,299.601288 
	C233.640091,280.799438 221.312805,268.987762 201.369400,267.809448 
	C181.605652,266.641724 161.770950,266.408752 141.965714,266.352570 
	C134.960800,266.332672 129.172241,265.221497 124.009727,260.036652 
	C107.694572,243.651077 91.057274,227.586594 74.618263,211.323441 
	C72.872520,209.596375 71.612640,207.378204 69.602257,204.684219 
	C72.339897,203.798050 74.543228,202.842255 76.845711,202.375168 
	C127.564606,192.085968 178.272385,181.739380 229.035461,171.671967 
	C244.699127,168.565536 260.448578,165.620499 276.297729,163.835022 
	C284.210205,162.943634 292.495056,164.410812 300.510498,165.532578 
	C354.801758,173.130539 409.277893,178.869186 464.060150,181.096405 
	C495.501312,182.374680 527.006348,183.753189 558.441040,183.096481 
	C597.547241,182.279480 636.620972,179.591324 675.686890,177.332504 
	C690.795044,176.458939 705.961731,175.295639 720.890320,172.930206 
	C741.943115,169.594376 762.802917,164.866653 781.859009,154.766586 
	C788.835266,151.069061 795.139343,146.103363 801.802917,141.681091 
	C801.833374,141.697769 802.076965,141.748077 802.111816,141.862122 
	C805.429993,152.725906 813.638611,153.653214 823.419922,153.471085 
	C850.908875,152.959229 878.411255,153.159256 905.908325,153.097565 
	C916.221924,153.074432 925.812622,150.889496 933.448120,143.431091 
	C936.729797,140.225494 938.621155,141.165466 940.597839,144.742096 
	C943.782166,150.504105 948.892395,153.254822 955.436523,153.147095 
	C966.739380,152.961060 978.051758,152.892303 989.337646,152.325195 
	C995.909912,151.994965 1001.467712,148.796982 1005.873108,143.921265 
	C1008.731689,140.757553 1010.920898,140.130783 1013.548828,144.265228 
	C1016.757263,149.312988 1021.677002,152.057739 1027.577271,152.881042 
	C1040.691528,154.710907 1053.856812,155.316223 1066.747681,151.818039 
	C1071.095459,150.638229 1075.038696,147.821976 1079.021606,145.504105 
	C1081.115601,144.285538 1082.895996,142.528305 1084.558472,141.218796 
	C1085.267456,141.450424 1085.505371,141.453735 1085.563843,141.557846 
	C1091.713989,152.502045 1101.773804,154.207397 1113.029419,153.349976 
	C1119.495117,152.857452 1125.983398,152.656860 1132.463135,152.357635 
	C1140.253662,151.997894 1146.397827,148.345901 1151.933594,142.629364 
M352.460693,266.209290 
	C329.630737,266.209412 306.800812,266.200928 283.970856,266.222534 
	C281.570526,266.224792 278.853302,265.540375 278.871185,269.653168 
	C278.965363,291.316193 278.871552,312.980042 279.006500,334.642609 
	C279.014679,335.953156 280.115051,337.907349 281.245758,338.459778 
	C292.455627,343.936890 303.726288,349.298615 315.097778,354.431458 
	C319.380463,356.364563 323.971313,357.614929 329.024719,359.388123 
	C329.146393,356.682617 329.280029,355.054352 329.282959,353.425842 
	C329.300934,343.427399 329.283722,333.428833 329.289551,323.430328 
	C329.293427,316.800262 329.301910,316.789429 335.745300,316.781952 
	C344.701019,316.771515 353.656769,316.779297 362.795837,316.779297 
	C362.795837,299.655487 362.795837,283.146423 362.795837,266.210297 
	C359.389038,266.210297 356.416229,266.210297 352.460693,266.209290 
z"/>
<!-- lower hole in B -->
<path fill="transparent" opacity="1.000000" stroke="none" 
	d="
M179.171783,446.999878 
	C179.171783,432.872772 179.171783,419.245667 179.171783,405.691040 
	C190.462555,404.277435 194.801453,407.614899 194.972000,418.256592 
	C195.209564,433.078644 195.274353,447.916840 194.839600,462.731293 
	C194.566452,472.039337 189.080093,475.861603 179.171783,474.250488 
	C179.171783,465.406006 179.171783,456.452972 179.171783,446.999878 
z"/>
<!-- upper hole in B -->
<path fill="transparent" opacity="1.000000" stroke="none" 
	d="
M179.171783,328.001343 
	C179.171783,321.731873 179.171783,315.962006 179.171783,310.272308 
	C190.193405,309.157623 194.507935,312.515503 194.887070,322.909241 
	C195.249954,332.856934 195.179474,342.838196 194.839203,352.789001 
	C194.474182,363.464081 190.625076,366.306976 179.171783,364.634918 
	C179.171783,352.655884 179.171783,340.578400 179.171783,328.001343 
z"/>
<!-- inside O -->
<path fill="transparent" opacity="1.000000" stroke="none" 
	d="
M1072.578125,474.429077 
	C1073.506470,476.916077 1074.672729,479.082458 1074.744385,481.284485 
	C1074.982300,488.590179 1074.928101,495.910675 1074.788940,503.221710 
	C1074.676392,509.133240 1071.338867,512.599060 1066.090210,512.651733 
	C1060.831421,512.704407 1057.377075,509.228180 1057.262451,503.371063 
	C1057.119263,496.060181 1056.791138,488.706970 1057.423706,481.448761 
	C1057.689087,478.403473 1059.533813,474.712799 1061.876587,472.822632 
	C1065.066406,470.248932 1069.118896,471.238434 1072.578125,474.429077 
z"/>
<!-- inside of A -->
<path fill="transparent" opacity="1.000000" stroke="none" 
	d="
M1072.922852,425.076782 
	C1070.526733,425.076721 1068.576172,425.076721 1065.611450,425.076721 
	C1067.834229,416.093689 1069.835083,408.007812 1071.835938,399.921936 
	C1072.182007,399.939606 1072.528198,399.957245 1072.874268,399.974915 
	C1074.750732,407.165558 1076.764893,414.324005 1078.455811,421.558014 
	C1079.604980,426.473755 1075.559570,424.597748 1072.922852,425.076782 
z"/>
<!-- inside of P -->
<path fill="transparent" opacity="1.000000" stroke="none" 
	d="
M1151.288330,472.010559 
	C1153.400879,472.004547 1155.064087,471.954315 1156.721558,472.028717 
	C1162.424438,472.284729 1165.236938,475.197388 1165.260620,480.807800 
	C1165.284058,486.402527 1162.445923,489.584137 1156.956665,489.901306 
	C1154.328979,490.053192 1151.685059,489.927460 1148.284424,489.927460 
	C1148.284424,484.323792 1148.197388,479.079773 1148.396973,473.846741 
	C1148.421265,473.208923 1149.985718,472.629822 1151.288330,472.010559 
z"/>
<!-- inside of dot -->
<path fill="currentColor" opacity="1.000000" stroke="none" 
	d="
M1152.510864,342.503021 
	C1155.036377,336.347351 1158.356201,334.065460 1163.496338,334.995972 
	C1167.687012,335.754578 1170.259521,338.380646 1170.802124,342.660309 
	C1171.510864,348.251831 1168.075562,352.747894 1162.839844,353.297516 
	C1156.909912,353.920013 1152.904541,349.910583 1152.510864,342.503021 
z"/>
</svg>